<svg xmlns="http://www.w3.org/2000/svg" width="1400" height="600" viewBox="0 0 1400 600">
  <defs>
    <!-- Backgrounds -->
    <radialGradient id="bgRadial" cx="50%" cy="50%" r="65%">
      <stop offset="0%"  style="stop-color:#161b22"/>
      <stop offset="100%" style="stop-color:#0d1117"/>
    </radialGradient>

    <!-- Subtle title bloom -->
    <filter id="titleBloom" x="-20%" y="-60%" width="140%" height="220%">
      <feGaussianBlur stdDeviation="6" result="b"/>
      <feMerge><feMergeNode in="b"/><feMergeNode in="SourceGraphic"/></feMerge>
    </filter>
    <filter id="softGlow" x="-40%" y="-40%" width="180%" height="180%">
      <feGaussianBlur stdDeviation="2" result="b"/>
      <feMerge><feMergeNode in="b"/><feMergeNode in="SourceGraphic"/></feMerge>
    </filter>

    <!-- Bar gradient (gold) -->
    <linearGradient id="goldBar" x1="0%" y1="100%" x2="0%" y2="0%">
      <stop offset="0%"   style="stop-color:#a8841a"/>
      <stop offset="100%" style="stop-color:#f4c430"/>
    </linearGradient>
    <linearGradient id="tealBar" x1="0%" y1="100%" x2="0%" y2="0%">
      <stop offset="0%"   style="stop-color:#1a8a82"/>
      <stop offset="100%" style="stop-color:#2ec4b6"/>
    </linearGradient>

    <clipPath id="clip"><rect width="1400" height="600"/></clipPath>
  </defs>

  <!-- ═══ BASE ═══ -->
  <rect width="1400" height="600" fill="#0d1117"/>
  <rect width="1400" height="600" fill="url(#bgRadial)"/>

  <!-- ═══ HEXAGONAL MESH ═══ -->
  <g clip-path="url(#clip)" opacity="0.075" stroke="#4a8aff" stroke-width="0.6" fill="none">
    <!-- Generated grid: hex width 30, hex height 26, two rows offset -->
    <!-- Row y=0..52 -->
    <g>
      <polygon points="30,0 60,0 75,26 60,52 30,52 15,26"/>
      <polygon points="90,0 120,0 135,26 120,52 90,52 75,26"/>
      <polygon points="150,0 180,0 195,26 180,52 150,52 135,26"/>
      <polygon points="210,0 240,0 255,26 240,52 210,52 195,26"/>
      <polygon points="270,0 300,0 315,26 300,52 270,52 255,26"/>
      <polygon points="330,0 360,0 375,26 360,52 330,52 315,26"/>
      <polygon points="390,0 420,0 435,26 420,52 390,52 375,26"/>
      <polygon points="450,0 480,0 495,26 480,52 450,52 435,26"/>
      <polygon points="510,0 540,0 555,26 540,52 510,52 495,26"/>
      <polygon points="570,0 600,0 615,26 600,52 570,52 555,26"/>
      <polygon points="630,0 660,0 675,26 660,52 630,52 615,26"/>
      <polygon points="690,0 720,0 735,26 720,52 690,52 675,26"/>
      <polygon points="750,0 780,0 795,26 780,52 750,52 735,26"/>
      <polygon points="810,0 840,0 855,26 840,52 810,52 795,26"/>
      <polygon points="870,0 900,0 915,26 900,52 870,52 855,26"/>
      <polygon points="930,0 960,0 975,26 960,52 930,52 915,26"/>
      <polygon points="990,0 1020,0 1035,26 1020,52 990,52 975,26"/>
      <polygon points="1050,0 1080,0 1095,26 1080,52 1050,52 1035,26"/>
      <polygon points="1110,0 1140,0 1155,26 1140,52 1110,52 1095,26"/>
      <polygon points="1170,0 1200,0 1215,26 1200,52 1170,52 1155,26"/>
      <polygon points="1230,0 1260,0 1275,26 1260,52 1230,52 1215,26"/>
      <polygon points="1290,0 1320,0 1335,26 1320,52 1290,52 1275,26"/>
      <polygon points="1350,0 1380,0 1395,26 1380,52 1350,52 1335,26"/>
    </g>
    <!-- Row y=52..104 (offset) -->
    <g>
      <polygon points="60,52 90,52 105,78 90,104 60,104 45,78"/>
      <polygon points="120,52 150,52 165,78 150,104 120,104 105,78"/>
      <polygon points="180,52 210,52 225,78 210,104 180,104 165,78"/>
      <polygon points="240,52 270,52 285,78 270,104 240,104 225,78"/>
      <polygon points="300,52 330,52 345,78 330,104 300,104 285,78"/>
      <polygon points="360,52 390,52 405,78 390,104 360,104 345,78"/>
      <polygon points="420,52 450,52 465,78 450,104 420,104 405,78"/>
      <polygon points="480,52 510,52 525,78 510,104 480,104 465,78"/>
      <polygon points="540,52 570,52 585,78 570,104 540,104 525,78"/>
      <polygon points="600,52 630,52 645,78 630,104 600,104 585,78"/>
      <polygon points="660,52 690,52 705,78 690,104 660,104 645,78"/>
      <polygon points="720,52 750,52 765,78 750,104 720,104 705,78"/>
      <polygon points="780,52 810,52 825,78 810,104 780,104 765,78"/>
      <polygon points="840,52 870,52 885,78 870,104 840,104 825,78"/>
      <polygon points="900,52 930,52 945,78 930,104 900,104 885,78"/>
      <polygon points="960,52 990,52 1005,78 990,104 960,104 945,78"/>
      <polygon points="1020,52 1050,52 1065,78 1050,104 1020,104 1005,78"/>
      <polygon points="1080,52 1110,52 1125,78 1110,104 1080,104 1065,78"/>
      <polygon points="1140,52 1170,52 1185,78 1170,104 1140,104 1125,78"/>
      <polygon points="1200,52 1230,52 1245,78 1230,104 1200,104 1185,78"/>
      <polygon points="1260,52 1290,52 1305,78 1290,104 1260,104 1245,78"/>
      <polygon points="1320,52 1350,52 1365,78 1350,104 1320,104 1305,78"/>
    </g>
    <!-- Row y=104..156 -->
    <g>
      <polygon points="30,104 60,104 75,130 60,156 30,156 15,130"/>
      <polygon points="90,104 120,104 135,130 120,156 90,156 75,130"/>
      <polygon points="150,104 180,104 195,130 180,156 150,156 135,130"/>
      <polygon points="210,104 240,104 255,130 240,156 210,156 195,130"/>
      <polygon points="270,104 300,104 315,130 300,156 270,156 255,130"/>
      <polygon points="330,104 360,104 375,130 360,156 330,156 315,130"/>
      <polygon points="390,104 420,104 435,130 420,156 390,156 375,130"/>
      <polygon points="450,104 480,104 495,130 480,156 450,156 435,130"/>
      <polygon points="510,104 540,104 555,130 540,156 510,156 495,130"/>
      <polygon points="570,104 600,104 615,130 600,156 570,156 555,130"/>
      <polygon points="630,104 660,104 675,130 660,156 630,156 615,130"/>
      <polygon points="690,104 720,104 735,130 720,156 690,156 675,130"/>
      <polygon points="750,104 780,104 795,130 780,156 750,156 735,130"/>
      <polygon points="810,104 840,104 855,130 840,156 810,156 795,130"/>
      <polygon points="870,104 900,104 915,130 900,156 870,156 855,130"/>
      <polygon points="930,104 960,104 975,130 960,156 930,156 915,130"/>
      <polygon points="990,104 1020,104 1035,130 1020,156 990,156 975,130"/>
      <polygon points="1050,104 1080,104 1095,130 1080,156 1050,156 1035,130"/>
      <polygon points="1110,104 1140,104 1155,130 1140,156 1110,156 1095,130"/>
      <polygon points="1170,104 1200,104 1215,130 1200,156 1170,156 1155,130"/>
      <polygon points="1230,104 1260,104 1275,130 1260,156 1230,156 1215,130"/>
      <polygon points="1290,104 1320,104 1335,130 1320,156 1290,156 1275,130"/>
      <polygon points="1350,104 1380,104 1395,130 1380,156 1350,156 1335,130"/>
    </g>
    <!-- Row y=156..208 -->
    <g>
      <polygon points="60,156 90,156 105,182 90,208 60,208 45,182"/>
      <polygon points="120,156 150,156 165,182 150,208 120,208 105,182"/>
      <polygon points="1260,156 1290,156 1305,182 1290,208 1260,208 1245,182"/>
      <polygon points="1320,156 1350,156 1365,182 1350,208 1320,208 1305,182"/>
    </g>
    <!-- Bottom rows: 416..468, 468..520, 520..572 -->
    <g>
      <polygon points="60,416 90,416 105,442 90,468 60,468 45,442"/>
      <polygon points="120,416 150,416 165,442 150,468 120,468 105,442"/>
      <polygon points="1260,416 1290,416 1305,442 1290,468 1260,468 1245,442"/>
      <polygon points="1320,416 1350,416 1365,442 1350,468 1320,468 1305,442"/>
    </g>
    <g>
      <polygon points="30,468 60,468 75,494 60,520 30,520 15,494"/>
      <polygon points="90,468 120,468 135,494 120,520 90,520 75,494"/>
      <polygon points="150,468 180,468 195,494 180,520 150,520 135,494"/>
      <polygon points="210,468 240,468 255,494 240,520 210,520 195,494"/>
      <polygon points="270,468 300,468 315,494 300,520 270,520 255,494"/>
      <polygon points="330,468 360,468 375,494 360,520 330,520 315,494"/>
      <polygon points="1050,468 1080,468 1095,494 1080,520 1050,520 1035,494"/>
      <polygon points="1110,468 1140,468 1155,494 1140,520 1110,520 1095,494"/>
      <polygon points="1170,468 1200,468 1215,494 1200,520 1170,520 1155,494"/>
      <polygon points="1230,468 1260,468 1275,494 1260,520 1230,520 1215,494"/>
      <polygon points="1290,468 1320,468 1335,494 1320,520 1290,520 1275,494"/>
      <polygon points="1350,468 1380,468 1395,494 1380,520 1350,520 1335,494"/>
    </g>
    <g>
      <polygon points="60,520 90,520 105,546 90,572 60,572 45,546"/>
      <polygon points="120,520 150,520 165,546 150,572 120,572 105,546"/>
      <polygon points="180,520 210,520 225,546 210,572 180,572 165,546"/>
      <polygon points="240,520 270,520 285,546 270,572 240,572 225,546"/>
      <polygon points="300,520 330,520 345,546 330,572 300,572 285,546"/>
      <polygon points="1020,520 1050,520 1065,546 1050,572 1020,572 1005,546"/>
      <polygon points="1080,520 1110,520 1125,546 1110,572 1080,572 1065,546"/>
      <polygon points="1140,520 1170,520 1185,546 1170,572 1140,572 1125,546"/>
      <polygon points="1200,520 1230,520 1245,546 1230,572 1200,572 1185,546"/>
      <polygon points="1260,520 1290,520 1305,546 1290,572 1260,572 1245,546"/>
      <polygon points="1320,520 1350,520 1365,546 1350,572 1320,572 1305,546"/>
    </g>
  </g>

  <!-- ═══ TITLE BLOCK (centred top) ═══ -->
  <!-- Top horizontal rule -->
  <line x1="450" y1="78" x2="950" y2="78" stroke="#f4c430" stroke-width="1" opacity="0.6"/>
  <!-- Title -->
  <text x="700" y="138" font-family="'Segoe UI', Arial, sans-serif" font-size="52" font-weight="800"
        fill="#ffffff" text-anchor="middle" filter="url(#titleBloom)" letter-spacing="1">SuperCoach VIA</text>
  <!-- Subtitle -->
  <text x="700" y="170" font-family="'Segoe UI', Arial, sans-serif" font-size="18" font-weight="500"
        fill="#2ec4b6" text-anchor="middle" letter-spacing="2">AFL Data Analytics  ·  Prediction  ·  AI-Powered Insights</text>
  <!-- Tertiary line -->
  <text x="700" y="194" font-family="'Segoe UI', Arial, sans-serif" font-size="13" font-weight="400"
        fill="#8b949e" text-anchor="middle" letter-spacing="1.5">Powered by LightGBM  ·  Claude AI  ·  Real AFL Data</text>
  <!-- Bottom horizontal rule -->
  <line x1="450" y1="210" x2="950" y2="210" stroke="#f4c430" stroke-width="1" opacity="0.6"/>

  <!-- ═══ VERTICAL SEPARATORS ═══ -->
  <line x1="466" y1="240" x2="466" y2="560" stroke="#30363d" stroke-width="1"/>
  <line x1="934" y1="240" x2="934" y2="560" stroke="#30363d" stroke-width="1"/>

  <!-- ═══ LEFT PANEL: AFL OVAL (centre x=233, centre y=400) ═══ -->
  <g>
    <!-- Outer oval (boundary) -->
    <ellipse cx="233" cy="400" rx="130" ry="90" fill="#2d5a27" stroke="#ffffff" stroke-width="2"/>
    <!-- Inner 50m arcs (dashed white) -->
    <path d="M 113 372 Q 145 322 233 318 Q 321 322 353 372"
          fill="none" stroke="#ffffff" stroke-width="1" stroke-dasharray="4,4" opacity="0.7"/>
    <path d="M 113 428 Q 145 478 233 482 Q 321 478 353 428"
          fill="none" stroke="#ffffff" stroke-width="1" stroke-dasharray="4,4" opacity="0.7"/>
    <!-- Centre square -->
    <rect x="193" y="360" width="80" height="80" fill="none" stroke="#ffffff" stroke-width="1.2" opacity="0.8"/>
    <!-- Centre circle -->
    <circle cx="233" cy="400" r="35" fill="none" stroke="#ffffff" stroke-width="1.5"/>
    <!-- Centre bounce dot -->
    <circle cx="233" cy="400" r="3" fill="#ffffff"/>
    <!-- Goal squares (small white rectangles at each end) -->
    <rect x="103" y="388" width="14" height="24" fill="none" stroke="#ffffff" stroke-width="1"/>
    <rect x="349" y="388" width="14" height="24" fill="none" stroke="#ffffff" stroke-width="1"/>
    <!-- Goal posts left (4 posts) -->
    <line x1="98"  y1="380" x2="98"  y2="410" stroke="#f4c430" stroke-width="2"/>
    <line x1="105" y1="385" x2="105" y2="415" stroke="#f4c430" stroke-width="1.6"/>
    <line x1="112" y1="385" x2="112" y2="415" stroke="#f4c430" stroke-width="1.6"/>
    <line x1="119" y1="380" x2="119" y2="410" stroke="#f4c430" stroke-width="2"/>
    <!-- Goal posts right (4 posts) -->
    <line x1="349" y1="380" x2="349" y2="410" stroke="#f4c430" stroke-width="2"/>
    <line x1="356" y1="385" x2="356" y2="415" stroke="#f4c430" stroke-width="1.6"/>
    <line x1="363" y1="385" x2="363" y2="415" stroke="#f4c430" stroke-width="1.6"/>
    <line x1="370" y1="380" x2="370" y2="410" stroke="#f4c430" stroke-width="2"/>
    <!-- Panel label -->
    <text x="233" y="270" font-family="'Segoe UI', Arial, sans-serif" font-size="11" font-weight="600"
          fill="#f4c430" text-anchor="middle" letter-spacing="3">THE FIELD</text>
    <text x="233" y="290" font-family="'Segoe UI', Arial, sans-serif" font-size="13" font-weight="400"
          fill="#8b949e" text-anchor="middle" letter-spacing="1">AFL · 18 clubs · 1897–2026</text>
  </g>

  <!-- ═══ CENTRE PANEL: BAR CHART (chart area x=506..894, baseline y=520, top y=290) ═══ -->
  <g>
    <!-- Panel label -->
    <text x="700" y="270" font-family="'Segoe UI', Arial, sans-serif" font-size="11" font-weight="600"
          fill="#f4c430" text-anchor="middle" letter-spacing="3">RECENT FORM · 10 ROUNDS</text>

    <!-- Y-axis label (rotated) -->
    <text x="478" y="405" font-family="'Segoe UI', Arial, sans-serif" font-size="11" font-weight="500"
          fill="#8b949e" text-anchor="middle" letter-spacing="1.5"
          transform="rotate(-90 478 405)">Disposals / game</text>

    <!-- Y-axis -->
    <line x1="506" y1="290" x2="506" y2="520" stroke="#30363d" stroke-width="1"/>
    <!-- X-axis -->
    <line x1="506" y1="520" x2="894" y2="520" stroke="#30363d" stroke-width="1"/>

    <!-- Y-axis ticks + dashed gridlines -->
    <g font-family="'Segoe UI', Arial, sans-serif" font-size="9" fill="#8b949e" text-anchor="end">
      <line x1="506" y1="520" x2="894" y2="520" stroke="#30363d" stroke-width="0.5" stroke-dasharray="2,4" opacity="0.5"/>
      <text x="500" y="523">0</text>
      <line x1="506" y1="463" x2="894" y2="463" stroke="#30363d" stroke-width="0.5" stroke-dasharray="2,4" opacity="0.5"/>
      <text x="500" y="466">10</text>
      <line x1="506" y1="405" x2="894" y2="405" stroke="#30363d" stroke-width="0.5" stroke-dasharray="2,4" opacity="0.5"/>
      <text x="500" y="408">20</text>
      <line x1="506" y1="348" x2="894" y2="348" stroke="#30363d" stroke-width="0.5" stroke-dasharray="2,4" opacity="0.5"/>
      <text x="500" y="351">30</text>
      <line x1="506" y1="290" x2="894" y2="290" stroke="#30363d" stroke-width="0.5" stroke-dasharray="2,4" opacity="0.5"/>
      <text x="500" y="293">40</text>
    </g>

    <!-- Bars: 10 rounds. Scale: y = 520 - (value * 5.75); width=24, gap=14, start=520
         Round values: 24, 27, 22, 29, 31, 28, 33, 30, 35, 38
         x positions (start at 520, step 38):
         R1=520, R2=558, R3=596, R4=634, R5=672, R6=710, R7=748, R8=786, R9=824, R10=862
         Tallest = R10 (38) -> teal
    -->
    <!-- R1 24 -> y=520-138=382, h=138 -->
    <rect x="520" y="382" width="24" height="138" fill="url(#goldBar)" rx="2"/>
    <!-- R2 27 -> y=520-155.25=364.75, h=155.25 -->
    <rect x="558" y="365" width="24" height="155" fill="url(#goldBar)" rx="2"/>
    <!-- R3 22 -> y=520-126.5=393.5, h=126.5 -->
    <rect x="596" y="394" width="24" height="126" fill="url(#goldBar)" rx="2"/>
    <!-- R4 29 -> y=520-166.75=353.25, h=166.75 -->
    <rect x="634" y="353" width="24" height="167" fill="url(#goldBar)" rx="2"/>
    <!-- R5 31 -> y=520-178.25=341.75 -->
    <rect x="672" y="342" width="24" height="178" fill="url(#goldBar)" rx="2"/>
    <!-- R6 28 -> y=520-161=359 -->
    <rect x="710" y="359" width="24" height="161" fill="url(#goldBar)" rx="2"/>
    <!-- R7 33 -> y=520-189.75=330.25 -->
    <rect x="748" y="330" width="24" height="190" fill="url(#goldBar)" rx="2"/>
    <!-- R8 30 -> y=520-172.5=347.5 -->
    <rect x="786" y="348" width="24" height="172" fill="url(#goldBar)" rx="2"/>
    <!-- R9 35 -> y=520-201.25=318.75 -->
    <rect x="824" y="319" width="24" height="201" fill="url(#goldBar)" rx="2"/>
    <!-- R10 38 (tallest) -> y=520-218.5=301.5; teal highlight -->
    <rect x="862" y="302" width="24" height="218" fill="url(#tealBar)" rx="2" filter="url(#softGlow)"/>

    <!-- Bezier trend line through bar tops (centre x = bar_x + 12) -->
    <!-- Points: (532,382)(570,365)(608,394)(646,353)(684,342)(722,359)(760,330)(798,348)(836,319)(874,302) -->
    <path d="M 532 382
             C 545 372, 558 358, 570 365
             S 595 400, 608 394
             S 633 346, 646 353
             S 671 335, 684 342
             S 709 365, 722 359
             S 747 322, 760 330
             S 785 354, 798 348
             S 823 312, 836 319
             S 861 295, 874 302"
          fill="none" stroke="#4cc9f0" stroke-width="2.2" opacity="0.95" filter="url(#softGlow)"/>

    <!-- Trend point markers -->
    <g fill="#4cc9f0">
      <circle cx="532" cy="382" r="2.5"/>
      <circle cx="570" cy="365" r="2.5"/>
      <circle cx="608" cy="394" r="2.5"/>
      <circle cx="646" cy="353" r="2.5"/>
      <circle cx="684" cy="342" r="2.5"/>
      <circle cx="722" cy="359" r="2.5"/>
      <circle cx="760" cy="330" r="2.5"/>
      <circle cx="798" cy="348" r="2.5"/>
      <circle cx="836" cy="319" r="2.5"/>
      <circle cx="874" cy="302" r="3.5" fill="#2ec4b6" filter="url(#softGlow)"/>
    </g>

    <!-- TRENDING ↑ annotation near peak -->
    <g>
      <rect x="788" y="262" width="92" height="22" rx="4"
            fill="#0d1117" stroke="#2ec4b6" stroke-width="1" opacity="0.95"/>
      <text x="834" y="277" font-family="'Segoe UI', Arial, sans-serif" font-size="11" font-weight="700"
            fill="#2ec4b6" text-anchor="middle" letter-spacing="1.5">TRENDING ↑</text>
      <!-- Connector to peak -->
      <line x1="834" y1="284" x2="874" y2="298" stroke="#2ec4b6" stroke-width="1" opacity="0.7"/>
    </g>

    <!-- Round labels -->
    <g font-family="'Segoe UI', Arial, sans-serif" font-size="10" fill="#8b949e" text-anchor="middle">
      <text x="532" y="538">Rd1</text>
      <text x="570" y="538">Rd2</text>
      <text x="608" y="538">Rd3</text>
      <text x="646" y="538">Rd4</text>
      <text x="684" y="538">Rd5</text>
      <text x="722" y="538">Rd6</text>
      <text x="760" y="538">Rd7</text>
      <text x="798" y="538">Rd8</text>
      <text x="836" y="538">Rd9</text>
      <text x="874" y="538" fill="#2ec4b6" font-weight="700">Rd10</text>
    </g>
  </g>

  <!-- ═══ RIGHT PANEL: STATS (5 boxes, x=950..1390, vertically centred) ═══ -->
  <g>
    <!-- Panel label -->
    <text x="1170" y="270" font-family="'Segoe UI', Arial, sans-serif" font-size="11" font-weight="600"
          fill="#f4c430" text-anchor="middle" letter-spacing="3">SEASON SNAPSHOT</text>

    <!-- 5 stat boxes: y centres 305, 360, 415, 470, 525  (55px stride) -->
    <!-- Box 1: AVG DISP -->
    <g>
      <text x="970" y="312" font-family="'Segoe UI', Arial, sans-serif" font-size="11" font-weight="600"
            fill="#f4c430" letter-spacing="2.5">AVG DISP</text>
      <text x="1370" y="316" font-family="'Segoe UI', Arial, sans-serif" font-size="28" font-weight="800"
            fill="#ffffff" text-anchor="end" letter-spacing="-0.5">32.4</text>
      <rect x="970" y="328" width="400" height="2" fill="#2ec4b6" opacity="0.85"/>
    </g>
    <!-- Box 2: AVG GOALS -->
    <g>
      <text x="970" y="367" font-family="'Segoe UI', Arial, sans-serif" font-size="11" font-weight="600"
            fill="#f4c430" letter-spacing="2.5">AVG GOALS</text>
      <text x="1370" y="371" font-family="'Segoe UI', Arial, sans-serif" font-size="28" font-weight="800"
            fill="#ffffff" text-anchor="end" letter-spacing="-0.5">1.2</text>
      <rect x="970" y="383" width="400" height="2" fill="#2ec4b6" opacity="0.85"/>
    </g>
    <!-- Box 3: CLEARANCES -->
    <g>
      <text x="970" y="422" font-family="'Segoe UI', Arial, sans-serif" font-size="11" font-weight="600"
            fill="#f4c430" letter-spacing="2.5">CLEARANCES</text>
      <text x="1370" y="426" font-family="'Segoe UI', Arial, sans-serif" font-size="28" font-weight="800"
            fill="#ffffff" text-anchor="end" letter-spacing="-0.5">6.8</text>
      <rect x="970" y="438" width="400" height="2" fill="#2ec4b6" opacity="0.85"/>
    </g>
    <!-- Box 4: TACKLES -->
    <g>
      <text x="970" y="477" font-family="'Segoe UI', Arial, sans-serif" font-size="11" font-weight="600"
            fill="#f4c430" letter-spacing="2.5">TACKLES</text>
      <text x="1370" y="481" font-family="'Segoe UI', Arial, sans-serif" font-size="28" font-weight="800"
            fill="#ffffff" text-anchor="end" letter-spacing="-0.5">5.1</text>
      <rect x="970" y="493" width="400" height="2" fill="#2ec4b6" opacity="0.85"/>
    </g>
    <!-- Box 5: FORM RTG -->
    <g>
      <text x="970" y="532" font-family="'Segoe UI', Arial, sans-serif" font-size="11" font-weight="600"
            fill="#f4c430" letter-spacing="2.5">FORM RTG</text>
      <text x="1370" y="536" font-family="'Segoe UI', Arial, sans-serif" font-size="28" font-weight="800"
            fill="#ffffff" text-anchor="end" letter-spacing="-0.5">8.7<tspan font-size="16" fill="#8b949e" dx="2">/10</tspan></text>
      <rect x="970" y="548" width="400" height="2" fill="#2ec4b6" opacity="0.85"/>
    </g>
  </g>

  <!-- ═══ EST. 1897 (bottom-right) ═══ -->
  <text x="1380" y="585" font-family="'Segoe UI', Arial, sans-serif" font-size="11" font-weight="500"
        fill="#8b949e" text-anchor="end" letter-spacing="2">EST. 1897</text>

  <!-- ═══ CORNER L-BRACKETS (gold, 3px, 40px arms) ═══ -->
  <!-- Top-left -->
  <path d="M 0 40 L 0 0 L 40 0" fill="none" stroke="#f4c430" stroke-width="3"/>
  <!-- Top-right -->
  <path d="M 1360 0 L 1400 0 L 1400 40" fill="none" stroke="#f4c430" stroke-width="3"/>
  <!-- Bottom-left -->
  <path d="M 0 560 L 0 600 L 40 600" fill="none" stroke="#f4c430" stroke-width="3"/>
  <!-- Bottom-right -->
  <path d="M 1360 600 L 1400 600 L 1400 560" fill="none" stroke="#f4c430" stroke-width="3"/>
</svg>
